<svg width="20" height="20" viewBox="0 0 44 40" fill="none" xmlns="http://www.w3.org/2000/svg">
<path d="M24.55 40C23.7833 40 23.225 39.75 22.875 39.25C22.525 38.75 22.4833 38.1333 22.75 37.4L30.1 17.9C30.3 17.3667 30.6667 16.9167 31.2 16.55C31.7333 16.1833 32.2833 16 32.85 16C33.4167 16 33.975 16.1833 34.525 16.55C35.075 16.9167 35.45 17.3667 35.65 17.9L43.15 37.2C43.45 37.9667 43.4167 38.625 43.05 39.175C42.6833 39.725 42.0667 40 41.2 40C40.8333 40 40.4833 39.8833 40.15 39.65C39.8167 39.4167 39.5833 39.1167 39.45 38.75L37.8 33.7H28.2L26.3 38.8C26.1667 39.1333 25.9333 39.4167 25.6 39.65C25.2667 39.8833 24.9167 40 24.55 40ZM29.3 30.2H36.4L32.9 20.5H32.8L29.3 30.2ZM12.45 13.1C12.95 13.9667 13.5 14.8083 14.1 15.625C14.7 16.4417 15.35 17.2833 16.05 18.15C17.55 16.5833 18.8 14.9583 19.8 13.275C20.8 11.5917 21.65 9.83333 22.35 8H2C1.43333 8 0.958333 7.80833 0.575 7.425C0.191667 7.04167 0 6.56667 0 6C0 5.43333 0.191667 4.95833 0.575 4.575C0.958333 4.19167 1.43333 4 2 4H14V2C14 1.43333 14.1917 0.958333 14.575 0.575C14.9583 0.191667 15.4333 0 16 0C16.5667 0 17.0417 0.191667 17.425 0.575C17.8083 0.958333 18 1.43333 18 2V4H30C30.5667 4 31.0417 4.19167 31.425 4.575C31.8083 4.95833 32 5.43333 32 6C32 6.56667 31.8083 7.04167 31.425 7.425C31.0417 7.80833 30.5667 8 30 8H26.35C25.6167 10.3 24.6417 12.5583 23.425 14.775C22.2083 16.9917 20.7167 19.1 18.95 21.1L23.85 26.05L22.35 30.1L16 24L7.35 32.65C6.98333 33.0167 6.53333 33.2 6 33.2C5.46667 33.2 5.01667 33 4.65 32.6C4.25 32.2333 4.05 31.7833 4.05 31.25C4.05 30.7167 4.25 30.25 4.65 29.85L13.45 21.05C12.5833 20.0167 11.7667 18.975 11 17.925C10.2333 16.875 9.53333 15.8 8.9 14.7C8.5 13.9667 8.46667 13.3333 8.8 12.8C9.13333 12.2667 9.73333 12 10.6 12C10.9667 12 11.325 12.1083 11.675 12.325C12.025 12.5417 12.2833 12.8 12.45 13.1Z" fill="#B6F829"/>
</svg>
