<svg width="24" height="24" viewBox="0 0 24 24" fill="none" xmlns="http://www.w3.org/2000/svg">
<path d="M12 2.1622C15.2041 2.1622 15.5836 2.1744 16.8489 2.23213C18.0189 2.28553 18.6544 2.48102 19.0773 2.64531C19.6373 2.863 20.0371 3.12308 20.457 3.54297C20.8769 3.96287 21.137 4.36267 21.3547 4.92275C21.519 5.34563 21.7145 5.98103 21.7679 7.15097C21.8256 8.41637 21.8377 8.79587 21.8377 12C21.8377 15.2042 21.8256 15.5837 21.7679 16.849C21.7145 18.019 21.519 18.6544 21.3547 19.0773C21.137 19.6373 20.8769 20.0372 20.457 20.4571C20.0371 20.877 19.6373 21.1371 19.0773 21.3547C18.6544 21.519 18.0189 21.7146 16.8489 21.7679C15.5838 21.8257 15.2043 21.8378 12 21.8378C8.79563 21.8378 8.41613 21.8257 7.15097 21.7679C5.98098 21.7146 5.34559 21.519 4.92275 21.3547C4.36262 21.1371 3.96282 20.877 3.54292 20.4571C3.12304 20.0372 2.86295 19.6373 2.64531 19.0773C2.48097 18.6544 2.28548 18.019 2.23208 16.849C2.17435 15.5837 2.16216 15.2042 2.16216 12C2.16216 8.79587 2.17435 8.41637 2.23208 7.15102C2.28548 5.98103 2.48097 5.34563 2.64531 4.92275C2.86295 4.36267 3.12304 3.96287 3.54292 3.54297C3.96282 3.12308 4.36262 2.863 4.92275 2.64531C5.34559 2.48102 5.98098 2.28553 7.15092 2.23213C8.41632 2.1744 8.79582 2.1622 12 2.1622ZM12 0C8.74095 0 8.33234 0.0138139 7.05242 0.0722133C5.7751 0.130518 4.90283 0.333343 4.13949 0.630008C3.35039 0.936677 2.68117 1.347 2.01406 2.01412C1.34695 2.68123 0.936629 3.35044 0.629961 4.13954C0.333295 4.90288 0.13047 5.77516 0.0721657 7.05247C0.0137662 8.33234 0 8.741 0 12C0 15.259 0.0137662 15.6677 0.0721657 16.9476C0.13047 18.2249 0.333295 19.0972 0.629961 19.8605C0.936629 20.6496 1.34695 21.3188 2.01406 21.986C2.68117 22.6531 3.35039 23.0633 4.13949 23.37C4.90283 23.6667 5.7751 23.8695 7.05242 23.9278C8.33234 23.9862 8.74095 24 12 24C15.259 24 15.6677 23.9862 16.9476 23.9278C18.2248 23.8695 19.0972 23.6667 19.8605 23.37C20.6496 23.0633 21.3188 22.6531 21.9859 21.986C22.653 21.3188 23.0633 20.6496 23.37 19.8605C23.6666 19.0972 23.8695 18.2249 23.9278 16.9476C23.9862 15.6677 24 15.259 24 12C24 8.741 23.9862 8.33234 23.9278 7.05247C23.8695 5.77516 23.6666 4.90288 23.37 4.13954C23.0633 3.35044 22.653 2.68123 21.9859 2.01412C21.3188 1.347 20.6496 0.936677 19.8605 0.630008C19.0972 0.333343 18.2248 0.130518 16.9476 0.0722133C15.6677 0.0138139 15.259 0 12 0ZM12 5.83784C8.59672 5.83784 5.83779 8.59676 5.83779 12C5.83779 15.4033 8.59672 18.1622 12 18.1622C15.4032 18.1622 18.1622 15.4033 18.1622 12C18.1622 8.59676 15.4032 5.83784 12 5.83784ZM12 16C9.79087 16 7.99995 14.2091 7.99995 12C7.99995 9.79087 9.79087 8 12 8C14.2091 8 16 9.79087 16 12C16 14.2091 14.2091 16 12 16ZM19.8456 5.59438C19.8456 6.38968 19.2009 7.03441 18.4057 7.03441C17.6103 7.03441 16.9656 6.38968 16.9656 5.59438C16.9656 4.79908 17.6103 4.15441 18.4057 4.15441C19.2009 4.15441 19.8456 4.79908 19.8456 5.59438Z" fill="url(#paint0_linear_3_25)"/>
<defs>
<linearGradient id="paint0_linear_3_25" x1="0" y1="0" x2="24" y2="0" gradientUnits="userSpaceOnUse">
<stop stop-color="#B6F829"/>
<stop offset="1" stop-color="#67DD0A"/>
</linearGradient>
</defs>
</svg>
